<svg viewBox="-5 -5 42 42" fill="none" xmlns="http://www.w3.org/2000/svg"><defs><linearGradient id="pg-gold" gradientUnits="userSpaceOnUse" x1="5" y1="5" x2="27" y2="27"><stop offset="0%" stop-color="#ecca8a"/><stop offset="100%" stop-color="#b8904a"/></linearGradient><filter id="pg-float" x="-60%" y="-60%" width="220%" height="220%"><feGaussianBlur in="SourceAlpha" stdDeviation="0.5" result="blur"/><feSpecularLighting in="blur" surfaceScale="1.6" specularConstant="0.6" specularExponent="12" lighting-color="#ffe6b8" result="spec"><feDistantLight azimuth="235" elevation="40"/></feSpecularLighting><feComposite in="spec" in2="SourceAlpha" operator="in" result="specIn"/><feComposite in="SourceGraphic" in2="specIn" operator="arithmetic" k1="0" k2="1" k3="0.8" k4="0" result="lit"/><feDropShadow in="lit" dx="0" dy="1" stdDeviation="0.7" flood-color="#04070e" flood-opacity="0.9" result="s1"/><feDropShadow in="s1" dx="0" dy="3" stdDeviation="2.6" flood-color="#04070e" flood-opacity="0.45"/></filter></defs><g filter="url(#pg-float)"><circle cx="16" cy="16" r="13.6" stroke="url(#pg-gold)" stroke-width="0.9" opacity="0.55" fill="none"/><path d="M16 1.4 V4.6 M27.4 16 H30.6 M16 27.4 V30.6 M1.4 16 H4.6" stroke="url(#pg-gold)" stroke-width="0.9" opacity="0.7" fill="none"/><path d="M16 5.5 Q16.69 15.31 26.5 16 Q16.69 16.69 16 26.5 Q15.31 16.69 5.5 16 Q15.31 15.31 16 5.5 Z" fill="url(#pg-gold)"/><path d="M16 12.4 L19.6 16 L16 19.6 L12.4 16 Z" fill="#6b4d9a" stroke="#0d1320" stroke-width="0.8"/><path d="M16 13.9 L18.1 16 L16 18.1 L13.9 16 Z" fill="#8e72c9"/><circle cx="25.62" cy="25.62" r="1.9" fill="#6b4d9a" stroke="#8e72c9" stroke-width="0.7"/><circle cx="5.37" cy="13.15" r="0.7" fill="#ecca8a" opacity="0.85"/><circle cx="6.99" cy="9.69" r="0.95" fill="#ecca8a" opacity="0.85"/><circle cx="9.69" cy="6.99" r="1.2" fill="#ecca8a" opacity="0.85"/></g></svg>