<svg viewBox="1 -75.4 512.4 80.8" xmlns="http://www.w3.org/2000/svg"><path d="M23.60-70L35.90-70Q43.80-70 48.95-67.55Q54.10-65.10 56.70-60.80Q59.30-56.50 59.40-50.80Q59.50-45.80 57.65-41.80Q55.80-37.80 52.55-35.10Q49.30-32.40 45.25-31.15Q41.20-29.90 36.80-30.45Q32.40-31 28.30-33.50L28.30-34.50Q28.30-34.50 29.65-34.40Q31-34.30 33.20-34.65Q35.40-35 37.85-36.05Q40.30-37.10 42.40-39.45Q44.50-41.80 45.60-45.70Q46-47 46.15-48.60Q46.30-50.20 46.20-51.70Q46.10-58.30 42.70-62.25Q39.30-66.20 33.10-66.20L24.60-66.20Q24.60-66.20 24.35-67.15Q24.10-68.10 23.85-69.05Q23.60-70 23.60-70M12.70-70L24.90-70L24.90 0L12.70 0L12.70-70M12.70-7.30L13-7.30L13 0L5 0L5-1Q5.10-1 5.65-1Q6.20-1 6.30-1Q8.90-1 10.75-2.85Q12.60-4.70 12.70-7.30M13-70L13-62.70L12.70-62.70Q12.70-65.30 10.80-67.15Q8.90-69 6.30-69Q6.20-69 5.70-69Q5.20-69 5.10-69L5-70L13-70M24.60 0L24.60-7.30L24.90-7.30Q25-4.70 26.85-2.85Q28.70-1 31.30-1Q31.30-1 31.90-1Q32.50-1 32.60-1L32.60 0 M78.90-60L90.60-60L90.60 0L78.90 0L78.90-60M78.90-6.30L79.20-6.30L79.20 0L71.50 0L71.50-1Q71.50-1 72.15-1Q72.80-1 72.80-1Q75.30-1 77.10-2.55Q78.90-4.10 78.90-6.30M90.30 0L90.30-6.30L90.60-6.30Q90.70-4.10 92.45-2.55Q94.20-1 96.80-1Q96.80-1 97.35-1Q97.90-1 98-1L98 0L90.30 0M90.60-53.70L90.30-53.70L90.30-60L98-60L97.90-59Q97.90-59 97.35-59Q96.80-59 96.80-59Q94.20-59 92.45-57.50Q90.70-56 90.60-53.70M79.20-60L79.20-53.70L78.90-53.70Q78.90-56 77.10-57.50Q75.30-59 72.80-59Q72.70-59 72.10-59Q71.50-59 71.50-59L71.50-60 M128.20-60L138.40-60Q146-60 151.10-57.85Q156.20-55.70 158.75-51.90Q161.30-48.10 161.40-43.30Q161.60-37.40 159.05-33.15Q156.50-28.90 152.25-26.60Q148-24.30 142.85-24.50Q137.70-24.70 132.80-27.70L132.80-28.60Q132.80-28.60 134-28.50Q135.20-28.40 137.15-28.70Q139.10-29 141.25-29.95Q143.40-30.90 145.30-33Q147.20-35.10 148.30-38.70Q148.60-40 148.75-41.45Q148.90-42.90 148.90-44.10Q148.80-49.80 145.30-53.10Q141.80-56.40 135.60-56.40L129.20-56.40Q129.20-56.40 128.95-57.30Q128.70-58.20 128.45-59.10Q128.20-60 128.20-60M117.70-60L129.40-60L129.40 0L117.70 0L117.70-60M117.70-6.30L117.90-6.30L118.60 0L110.90 0L110.90-1Q110.90-1 111.50-1Q112.10-1 112.10-1Q114.40-1 116-2.55Q117.60-4.10 117.70-6.30M118.60-60L117.90-53.70L117.70-53.70Q117.60-56 116-57.50Q114.40-59 112.10-59Q112-59 111.45-59Q110.90-59 110.80-59L110.80-60L118.60-60M128.40 0L129.10-6.30L129.30-6.30Q129.40-4.10 130.95-2.55Q132.50-1 134.90-1Q135-1 135.55-1Q136.10-1 136.20-1L136.10 0 M243.90-28L243.90-11.50Q241.60-8.50 237.15-5.50Q232.70-2.50 226.40-0.55Q220.10 1.40 212.10 1.40Q201.10 1.30 192.70-3.15Q184.30-7.60 179.65-15.75Q175-23.90 175-35.10Q175-46.10 179.60-54.30Q184.20-62.50 192.70-66.95Q201.20-71.40 212.50-71.40Q218-71.40 222.95-70.60Q227.90-69.80 232.05-68.45Q236.20-67.10 239.10-65.50L239.90-49.40L239-49.40Q237.20-55.90 233.65-59.85Q230.10-63.80 225.20-65.70Q220.30-67.60 214.60-67.60Q206.30-67.60 200.45-63.55Q194.60-59.50 191.50-52.15Q188.40-44.80 188.40-34.70Q188.40-24.90 191.35-17.65Q194.30-10.40 199.85-6.45Q205.40-2.50 213-2.40Q217-2.40 220.60-3.50Q224.20-4.60 227.15-6.75Q230.10-8.90 231.80-11.90L231.90-28Q231.90-32.50 226.80-32.50L225.20-32.50L225.20-33.50L250.40-33.50L250.40-32.50L248.90-32.50Q243.70-32.50 243.90-28 M267-60L278.70-60L278.70 0L267 0L267-60M278.50-3.70L303.20-3.70L304.80 0L278.50 0L278.50-3.70M308.50-17L309.50-17L305 0L288.40 0L291.60-3.70Q296.20-3.70 299.45-5.35Q302.70-7 304.90-10Q307.10-13 308.50-17M267-6.30L267.20-6.30L267.90 0L260.10 0L260.10-1Q260.10-1 260.75-1Q261.40-1 261.40-1Q263.70-1 265.30-2.55Q266.90-4.10 267-6.30M278.70-53.70L278.40-53.70L278.40-60L285.50-60L285.50-59Q285.50-59 284.95-59Q284.40-59 284.40-59Q282-59 280.35-57.50Q278.70-56 278.70-53.70M267.20-60L267.20-53.70L267-53.70Q266.90-56 265.25-57.50Q263.60-59 261.30-59Q261.20-59 260.65-59Q260.10-59 260.10-59L260.10-60 M310.90-59.90L324.70-59.90L343.50-27.20L333.20-25.10L310.90-59.90M332.50-26.60L344.40-26.70L344.40 0L332.50 0L332.50-26.60M339.10-25.70L359.40-59.90L366.40-59.90L343.50-24.70L339.10-25.70M362.60-54L355.70-53.70Q356.80-55.60 355.75-57.30Q354.70-59 352.70-59Q352.70-59 352.10-59Q351.50-59 351.50-59L351.50-60L372.80-60L372.80-59L371.50-59Q368.80-59 366.40-57.50Q364-56 362.60-54M328.30-53.80L314.60-54.10Q313.10-56.30 310.80-57.65Q308.50-59 305.70-59L304.50-59L304.50-60L332.40-60L332.40-59Q332.40-59 331.85-59Q331.30-59 331.30-59Q329.20-59 328.25-57.30Q327.30-55.60 328.30-53.80M332.50-6.30L332.80-6.30L332.80 0L325.70 0L325.70-1Q325.80-1 326.35-1Q326.90-1 326.90-1Q329.20-1 330.85-2.55Q332.50-4.10 332.50-6.30M344.10 0L344.10-6.30L344.40-6.30Q344.50-4.10 346.10-2.55Q347.70-1 350-1Q350-1 350.60-1Q351.20-1 351.20-1L351.20 0 M397.50-60L407.70-60Q415.30-60 420.40-57.85Q425.50-55.70 428.05-51.90Q430.60-48.10 430.70-43.30Q430.90-37.40 428.35-33.15Q425.80-28.90 421.55-26.60Q417.30-24.30 412.15-24.50Q407-24.70 402.10-27.70L402.10-28.60Q402.10-28.60 403.30-28.50Q404.50-28.40 406.45-28.70Q408.40-29 410.55-29.95Q412.70-30.90 414.60-33Q416.50-35.10 417.60-38.70Q417.90-40 418.05-41.45Q418.20-42.90 418.20-44.10Q418.10-49.80 414.60-53.10Q411.10-56.40 404.90-56.40L398.50-56.40Q398.50-56.40 398.25-57.30Q398-58.20 397.75-59.10Q397.50-60 397.50-60M387-60L398.70-60L398.70 0L387 0L387-60M387-6.30L387.20-6.30L387.90 0L380.20 0L380.20-1Q380.20-1 380.80-1Q381.40-1 381.40-1Q383.70-1 385.30-2.55Q386.90-4.10 387-6.30M387.90-60L387.20-53.70L387-53.70Q386.90-56 385.30-57.50Q383.70-59 381.40-59Q381.30-59 380.75-59Q380.20-59 380.10-59L380.10-60L387.90-60M397.70 0L398.40-6.30L398.60-6.30Q398.70-4.10 400.25-2.55Q401.80-1 404.20-1Q404.30-1 404.85-1Q405.40-1 405.50-1L405.40 0 M490.90-60L502.60-60L502.60 0L490.90 0L490.90-60M449.30-60L461.10-60L461.10 0L449.30 0L449.30-60M460.10-31.60L491.80-31.60L491.80-28L460.10-28L460.10-31.60M449.30-6.30L449.60-6.30L449.60 0L442.60 0L442.60-1Q442.60-1 443.15-1Q443.70-1 443.80-1Q446.10-1 447.70-2.55Q449.30-4.10 449.30-6.30M460.80 0L460.80-6.30L461.10-6.30Q461.10-4.10 462.75-2.55Q464.40-1 466.70-1Q466.70-1 467.25-1Q467.80-1 467.80-1L467.80 0L460.80 0M461.10-53.70L460.80-53.70L460.80-60L467.80-60L467.80-59Q467.80-59 467.25-59Q466.70-59 466.70-59Q464.40-59 462.75-57.50Q461.10-56 461.10-53.70M449.60-60L449.60-53.70L449.30-53.70Q449.30-56 447.70-57.50Q446.10-59 443.80-59Q443.70-59 443.15-59Q442.60-59 442.60-59L442.60-60L449.60-60M490.90-6.30L491.20-6.30L491.20 0L484.20 0L484.20-1Q484.20-1 484.75-1Q485.30-1 485.30-1Q487.70-1 489.25-2.55Q490.80-4.10 490.90-6.30M502.30 0L502.30-6.30L502.60-6.30Q502.70-4.10 504.30-2.55Q505.90-1 508.20-1Q508.20-1 508.80-1Q509.40-1 509.40-1L509.40 0L502.30 0M502.70-53.70L502.40-53.70L502.40-60L509.40-60L509.40-59Q509.40-59 508.80-59Q508.20-59 508.20-59Q505.90-59 504.30-57.50Q502.70-56 502.70-53.70M491.20-60L491.20-53.70L490.90-53.70Q490.80-56 489.25-57.50Q487.70-59 485.30-59Q485.30-59 484.75-59Q484.20-59 484.20-59L484.20-60" fill="#1a2030"/></svg>