<svg viewBox="0 0 32 32" fill="none" xmlns="http://www.w3.org/2000/svg"><circle cx="16" cy="16" r="13.6" stroke="#d8b26e" stroke-width="0.9" opacity="0.55" fill="none"/><path d="M16 1.4 V4.6 M27.4 16 H30.6 M16 27.4 V30.6 M1.4 16 H4.6" stroke="#d8b26e" stroke-width="0.9" opacity="0.7" fill="none"/><path d="M16 5.5 Q16.69 15.31 26.5 16 Q16.69 16.69 16 26.5 Q15.31 16.69 5.5 16 Q15.31 15.31 16 5.5 Z" fill="#d8b26e"/><path d="M16 12.4 L19.6 16 L16 19.6 L12.4 16 Z" fill="#6b4d9a" stroke="#0d1320" stroke-width="0.8"/><path d="M16 13.9 L18.1 16 L16 18.1 L13.9 16 Z" fill="#8e72c9"/><circle cx="25.62" cy="25.62" r="1.9" fill="#6b4d9a" stroke="#8e72c9" stroke-width="0.7"/><circle cx="5.37" cy="13.15" r="0.7" fill="#ecca8a" opacity="0.85"/><circle cx="6.99" cy="9.69" r="0.95" fill="#ecca8a" opacity="0.85"/><circle cx="9.69" cy="6.99" r="1.2" fill="#ecca8a" opacity="0.85"/></svg>